<?xml version="1.0" encoding="UTF-8" standalone="no"?>
<!-- Created with Inkscape (http://www.inkscape.org/) -->

<svg
   width="15.999999"
   height="15.999999"
   viewBox="0 0 4.233333 4.233333"
   version="1.1"
   id="svg1"
   xml:space="preserve"
   xmlns="http://www.w3.org/2000/svg"
   xmlns:svg="http://www.w3.org/2000/svg"><defs
     id="defs1" /><g
     id="layer1"><path
       id="rect2"
       style="fill:#569d5b;fill-opacity:1;stroke:#ffffff;stroke-width:0;stroke-dasharray:none;stroke-opacity:1"
       d="m 1.067589,0.44741789 c -0.10376539,0 -0.2089406,0.0807013 -0.23579703,0.18093349 L 0.06311588,3.4971211 C 0.03625922,3.5973519 0.09818832,3.6780307 0.20195331,3.6780307 H 1.19558 c 0.1037653,0 0.2089166,-0.080682 0.2357735,-0.1809096 L 1.5326181,3.1191549 c 0.3861399,0.6964789 1.2232757,0.6898575 1.5677507,0.6542063 0.089252,-0.0092 0.1687481,-0.08167 0.1913423,-0.1660014 L 3.5347548,2.7003333 C 3.5666291,2.5813748 3.4723439,2.4956072 3.3458937,2.5126144 2.9010616,2.5724386 2.6606306,2.4587306 2.5433409,2.3383196 3.6150975,1.7747281 4.0510369,1.0285589 4.1707946,0.60344829 4.1961289,0.51351091 4.1340043,0.44741789 4.0408826,0.44741789 H 3.033053 c -0.1034452,0 -0.2080526,0.0815731 -0.2438225,0.18110313 C 2.5931579,1.1741758 2.257965,1.4088802 2.0597085,1.4862778 2.0244095,1.5000556 1.9886147,1.5174063 1.9560617,1.5388588 L 2.2000291,0.62835138 C 2.2268849,0.52812204 2.1649807,0.44741789 2.0612161,0.44741789 Z" /></g></svg>
